<?xml version="1.0" encoding="iso-8859-1"?>
<!-- Generator: Adobe Illustrator 16.0.0, SVG Export Plug-In . SVG Version: 6.00 Build 0)  -->
<!DOCTYPE svg PUBLIC "-//W3C//DTD SVG 1.1//EN" "http://www.w3.org/Graphics/SVG/1.1/DTD/svg11.dtd">
<svg version="1.1" id="Capa_1" xmlns="http://www.w3.org/2000/svg" xmlns:xlink="http://www.w3.org/1999/xlink" x="0px" y="0px"
	 width="478.866px" height="478.865px" viewBox="0 0 478.866 478.865" style="enable-background:new 0 0 478.866 478.865;"
	 xml:space="preserve">
<g>
	<g>
		<path d="M193.568,349.545c16.122,19.381,29.289,129.316,29.289,129.316l84.458-227.43c0,0-4.279-14.487-1.57-28.252l93.629-118.82
			l0.061,0.044c0.381-0.571,0.934-1.261,1.395-1.89c1.303-1.789,2.846-3.753,4.645-5.903c19.612-23.394,65.013-65.245,65.013-65.245
			l8.38-31.362L365.371,62.822c8.26,9.215,10.312,18.526,10.849,22.814l-87.398,110.917c-4.352,1.265-10.563,2.22-19.332,2.056
			L0,363.864C0,363.864,177.435,330.178,193.568,349.545z"/>
	</g>
</g>
<g>
</g>
<g>
</g>
<g>
</g>
<g>
</g>
<g>
</g>
<g>
</g>
<g>
</g>
<g>
</g>
<g>
</g>
<g>
</g>
<g>
</g>
<g>
</g>
<g>
</g>
<g>
</g>
<g>
</g>
</svg>
