<?xml version="1.0"?>
<svg xmlns="http://www.w3.org/2000/svg" xmlns:xlink="http://www.w3.org/1999/xlink" version="1.1" id="Capa_1" x="0px" y="0px" width="512px" height="512px" viewBox="0 0 478.866 478.865" style="enable-background:new 0 0 478.866 478.865;" xml:space="preserve"><g><g>
	<g>
		<path d="M193.568,349.545c16.122,19.381,29.289,129.316,29.289,129.316l84.458-227.43c0,0-4.279-14.487-1.57-28.252l93.629-118.82    l0.061,0.044c0.381-0.571,0.934-1.261,1.395-1.89c1.303-1.789,2.846-3.753,4.645-5.903c19.612-23.394,65.013-65.245,65.013-65.245    l8.38-31.362L365.371,62.822c8.26,9.215,10.312,18.526,10.849,22.814l-87.398,110.917c-4.352,1.265-10.563,2.22-19.332,2.056    L0,363.864C0,363.864,177.435,330.178,193.568,349.545z" data-original="#000000" class="active-path" data-old_color="#000000" fill="#FFFFFF"/>
	</g>
</g></g> </svg>
